{
  "accessors": [
    {
      "bufferView": 2,
      "componentType": 5126,
      "count": 4,
      "max": [
        11.949000358581543,
        30.756250381469727,
        -25.019350051879883
      ],
      "min": [
        -9.15237045288086,
        13.682880401611328,
        -50.68292999267578
      ],
      "type": "VEC3"
    },
    {
      "bufferView": 2,
      "byteOffset": 48,
      "componentType": 5126,
      "count": 4,
      "max": [
        0.49706214666366577,
        0.814023494720459,
        0.3004912734031677
      ],
      "min": [
        0.49706214666366577,
        0.814023494720459,
        0.3004912734031677
      ],
      "type": "VEC3"
    },
    {
      "bufferView": 1,
      "componentType": 5126,
      "count": 4,
      "max": [
        0.9998999834060669,
        0.9998999834060669
      ],
      "min": [
        9.999999747378752e-05,
        9.999999747378752e-05
      ],
      "type": "VEC2"
    },
    {
      "bufferView": 0,
      "componentType": 5125,
      "count": 6,
      "type": "SCALAR"
    },
    {
      "bufferView": 2,
      "byteOffset": 96,
      "componentType": 5126,
      "count": 1362,
      "max": [
        3.4977800846099854,
        0.2826400101184845,
        0.7984799742698669
      ],
      "min": [
        -1.6529200077056885,
        -0.3091300129890442,
        -1.4007699489593506
      ],
      "type": "VEC3"
    },
    {
      "bufferView": 2,
      "byteOffset": 16440,
      "componentType": 5126,
      "count": 1362,
      "max": [
        0.9993324875831604,
        0.9988507032394409,
        0.9959735870361328
      ],
      "min": [
        -0.9985560774803162,
        -0.9988694787025452,
        -0.9869929552078247
      ],
      "type": "VEC3"
    },
    {
      "bufferView": 1,
      "byteOffset": 32,
      "componentType": 5126,
      "count": 1362,
      "max": [
        0.9980000257492065,
        0.9958500266075134
      ],
      "min": [
        0.003490000031888485,
        0.004050000105053186
      ],
      "type": "VEC2"
    },
    {
      "bufferView": 0,
      "byteOffset": 24,
      "componentType": 5125,
      "count": 3540,
      "type": "SCALAR"
    },
    {
      "bufferView": 2,
      "byteOffset": 32784,
      "componentType": 5126,
      "count": 8528,
      "max": [
        1.1818000078201294,
        0.6766499876976013,
        1.628890037536621
      ],
      "min": [
        -1.4396599531173706,
        -0.9969000220298767,
        -2.9645800590515137
      ],
      "type": "VEC3"
    },
    {
      "bufferView": 2,
      "byteOffset": 135120,
      "componentType": 5126,
      "count": 8528,
      "max": [
        0.9999437928199768,
        0.9997125267982483,
        0.999987781047821
      ],
      "min": [
        -0.9999097585678101,
        -0.9998509287834167,
        -0.999916672706604
      ],
      "type": "VEC3"
    },
    {
      "bufferView": 1,
      "byteOffset": 10928,
      "componentType": 5126,
      "count": 8528,
      "max": [
        0.9987099766731262,
        0.9982399940490723
      ],
      "min": [
        0.0016499999910593033,
        0.0013599999947473407
      ],
      "type": "VEC2"
    },
    {
      "bufferView": 1,
      "byteOffset": 79152,
      "componentType": 5126,
      "count": 8528,
      "max": [
        0.998420000076294,
        0.9944400191307068
      ],
      "min": [
        0.0,
        0.0
      ],
      "type": "VEC2"
    },
    {
      "bufferView": 0,
      "byteOffset": 14184,
      "componentType": 5125,
      "count": 25692,
      "type": "SCALAR"
    }
  ],
  "asset": {
    "extras": {
      "author": "adamnsexyname (Pieter) (https://sketchfab.com/adamnsexyname)",
      "license": "CC-BY-4.0 (http://creativecommons.org/licenses/by/4.0/)",
      "source": "https://sketchfab.com/3d-models/guard-9d21df6ad131402cafb2fb5851683158",
      "title": "guard"
    },
    "generator": "Sketchfab-12.66.0",
    "version": "2.0"
  },
  "bufferViews": [
    {
      "buffer": 0,
      "byteLength": 116952,
      "name": "floatBufferViews",
      "target": 34963
    },
    {
      "buffer": 0,
      "byteLength": 147376,
      "byteOffset": 116952,
      "byteStride": 8,
      "name": "floatBufferViews",
      "target": 34962
    },
    {
      "buffer": 0,
      "byteLength": 237456,
      "byteOffset": 264328,
      "byteStride": 12,
      "name": "floatBufferViews",
      "target": 34962
    }
  ],
  "buffers": [
    {
      "byteLength": 501784,
      "uri": "scene.bin"
    }
  ],
  "extensionsRequired": [
    "KHR_materials_pbrSpecularGlossiness"
  ],
  "extensionsUsed": [
    "KHR_materials_pbrSpecularGlossiness"
  ],
  "images": [
    {
      "uri": "textures/Plane_0_diffuse.png"
    },
    {
      "uri": "textures/personage_diffuse.png"
    },
    {
      "uri": "textures/personage_emissive.png"
    },
    {
      "uri": "textures/wapen_diffuse.png"
    },
    {
      "uri": "textures/wapen_emissive.png"
    }
  ],
  "materials": [
    {
      "alphaMode": "BLEND",
      "doubleSided": true,
      "extensions": {
        "KHR_materials_pbrSpecularGlossiness": {
          "diffuseFactor": [
            1.0,
            1.0,
            1.0,
            1.0
          ],
          "diffuseTexture": {
            "index": 0
          },
          "glossinessFactor": 0.4,
          "specularFactor": [
            0.0,
            0.0,
            0.0
          ]
        }
      },
      "name": "Plane_0"
    },
    {
      "doubleSided": true,
      "emissiveFactor": [
        1.0,
        1.0,
        1.0
      ],
      "emissiveTexture": {
        "index": 2
      },
      "extensions": {
        "KHR_materials_pbrSpecularGlossiness": {
          "diffuseFactor": [
            1.0,
            1.0,
            1.0,
            1.0
          ],
          "diffuseTexture": {
            "index": 1
          },
          "glossinessFactor": 1.0,
          "specularFactor": [
            0.0,
            0.0,
            0.0
          ]
        }
      },
      "name": "personage"
    },
    {
      "doubleSided": true,
      "emissiveFactor": [
        1.0,
        1.0,
        1.0
      ],
      "emissiveTexture": {
        "index": 4
      },
      "extensions": {
        "KHR_materials_pbrSpecularGlossiness": {
          "diffuseFactor": [
            1.0,
            1.0,
            1.0,
            1.0
          ],
          "diffuseTexture": {
            "index": 3
          },
          "glossinessFactor": 0.0,
          "specularFactor": [
            0.0,
            0.0,
            0.0
          ]
        }
      },
      "name": "wapen"
    }
  ],
  "meshes": [
    {
      "name": "Plane_0",
      "primitives": [
        {
          "attributes": {
            "NORMAL": 1,
            "POSITION": 0,
            "TEXCOORD_0": 2
          },
          "indices": 3,
          "material": 0,
          "mode": 4
        }
      ]
    },
    {
      "name": "Cylinder.000_0",
      "primitives": [
        {
          "attributes": {
            "NORMAL": 5,
            "POSITION": 4,
            "TEXCOORD_0": 6
          },
          "indices": 7,
          "material": 2,
          "mode": 4
        }
      ]
    },
    {
      "name": "Avatar.001_0",
      "primitives": [
        {
          "attributes": {
            "NORMAL": 9,
            "POSITION": 8,
            "TEXCOORD_0": 10,
            "TEXCOORD_1": 11
          },
          "indices": 12,
          "material": 1,
          "mode": 4
        }
      ]
    }
  ],
  "nodes": [
    {
      "children": [
        1
      ],
      "matrix": [
        1.0,
        0.0,
        0.0,
        0.0,
        0.0,
        2.220446049250313e-16,
        -1.0,
        0.0,
        0.0,
        1.0,
        2.220446049250313e-16,
        0.0,
        0.0,
        0.0,
        0.0,
        1.0
      ],
      "name": "Sketchfab_model"
    },
    {
      "children": [
        2,
        4,
        6
      ],
      "name": "Root"
    },
    {
      "children": [
        3
      ],
      "matrix": [
        -0.015560000000000003,
        -0.047790000000000006,
        -0.08196000000000002,
        0.0,
        0.04107000000000001,
        -0.07826000000000002,
        0.03783000000000001,
        0.0,
        -0.08552000000000003,
        -0.028890000000000002,
        0.033080000000000005,
        0.0,
        -7.33582,
        0.51844,
        5.10649,
        1.0
      ],
      "name": "Plane"
    },
    {
      "mesh": 0,
      "name": "Plane_0"
    },
    {
      "children": [
        5
      ],
      "matrix": [
        1.0,
        0.0,
        0.0,
        0.0,
        0.0,
        1.0,
        0.0,
        0.0,
        0.0,
        0.0,
        1.0,
        0.0,
        -1.55505,
        -0.11919000000000003,
        3.0556099999999997,
        1.0
      ],
      "name": "Cylinder.000"
    },
    {
      "mesh": 1,
      "name": "Cylinder.000_0"
    },
    {
      "children": [
        7
      ],
      "matrix": [
        1.0,
        0.0,
        0.0,
        0.0,
        0.0,
        1.0,
        -0.0,
        0.0,
        0.0,
        0.0,
        1.0,
        0.0,
        0.031720000000000005,
        0.7376000000000001,
        2.9363699999999997,
        1.0
      ],
      "name": "Avatar.001"
    },
    {
      "mesh": 2,
      "name": "Avatar.001_0"
    }
  ],
  "samplers": [
    {
      "magFilter": 9729,
      "minFilter": 9987,
      "wrapS": 10497,
      "wrapT": 10497
    }
  ],
  "scene": 0,
  "scenes": [
    {
      "name": "Sketchfab_Scene",
      "nodes": [
        0
      ]
    }
  ],
  "textures": [
    {
      "sampler": 0,
      "source": 0
    },
    {
      "sampler": 0,
      "source": 1
    },
    {
      "sampler": 0,
      "source": 2
    },
    {
      "sampler": 0,
      "source": 3
    },
    {
      "sampler": 0,
      "source": 4
    }
  ]
}
