{
  "accessors": [
    {
      "bufferView": 2,
      "componentType": 5126,
      "count": 65532,
      "max": [
        5.237276077270508,
        -0.25873398780822754,
        7.186657905578613
      ],
      "min": [
        -9.11091423034668,
        -20.63381576538086,
        -7.197058200836182
      ],
      "type": "VEC3"
    },
    {
      "bufferView": 2,
      "byteOffset": 786384,
      "componentType": 5126,
      "count": 65532,
      "max": [
        0.9999882578849792,
        0.9996936321258545,
        0.9998833537101746
      ],
      "min": [
        -0.999991238117218,
        -0.9999308586120605,
        -0.9999480247497559
      ],
      "type": "VEC3"
    },
    {
      "bufferView": 1,
      "componentType": 5126,
      "count": 65532,
      "max": [
        0.9992679953575134,
        0.9992579817771912
      ],
      "min": [
        0.0007319999858736992,
        0.000742000003810972
      ],
      "type": "VEC2"
    },
    {
      "bufferView": 0,
      "componentType": 5125,
      "count": 350451,
      "type": "SCALAR"
    },
    {
      "bufferView": 2,
      "byteOffset": 1572768,
      "componentType": 5126,
      "count": 59156,
      "max": [
        6.289917945861816,
        -0.1740799993276596,
        7.186657905578613
      ],
      "min": [
        -8.56781005859375,
        -20.42946434020996,
        -6.467733860015869
      ],
      "type": "VEC3"
    },
    {
      "bufferView": 2,
      "byteOffset": 2282640,
      "componentType": 5126,
      "count": 59156,
      "max": [
        0.999984622001648,
        0.9996936321258545,
        0.9999984502792358
      ],
      "min": [
        -0.9995198845863342,
        -0.9999271035194397,
        -0.9999775290489197
      ],
      "type": "VEC3"
    },
    {
      "bufferView": 1,
      "byteOffset": 524256,
      "componentType": 5126,
      "count": 59156,
      "max": [
        0.9992679953575134,
        0.9978970289230347
      ],
      "min": [
        0.0007319999858736992,
        0.000742000003810972
      ],
      "type": "VEC2"
    },
    {
      "bufferView": 0,
      "byteOffset": 1401804,
      "componentType": 5125,
      "count": 314514,
      "type": "SCALAR"
    }
  ],
  "asset": {
    "extras": {
      "author": "Carriage Way Cemetery (https://sketchfab.com/knowmatt)",
      "license": "CC-BY-4.0 (http://creativecommons.org/licenses/by/4.0/)",
      "source": "https://sketchfab.com/3d-models/itchy-stone-baby-series-0f2a972aa4dc48df956cb6136900e159",
      "title": "Itchy-Stone Baby Series"
    },
    "generator": "Sketchfab-12.68.0",
    "version": "2.0"
  },
  "bufferViews": [
    {
      "buffer": 0,
      "byteLength": 2659860,
      "name": "floatBufferViews",
      "target": 34963
    },
    {
      "buffer": 0,
      "byteLength": 997504,
      "byteOffset": 2659860,
      "byteStride": 8,
      "name": "floatBufferViews",
      "target": 34962
    },
    {
      "buffer": 0,
      "byteLength": 2992512,
      "byteOffset": 3657364,
      "byteStride": 12,
      "name": "floatBufferViews",
      "target": 34962
    }
  ],
  "buffers": [
    {
      "byteLength": 6649876,
      "uri": "scene.bin"
    }
  ],
  "extensionsUsed": [
    "KHR_materials_unlit"
  ],
  "images": [
    {
      "uri": "textures/Material_0_baseColor.jpeg"
    }
  ],
  "materials": [
    {
      "doubleSided": true,
      "extensions": {
        "KHR_materials_unlit": {}
      },
      "name": "Material_0",
      "pbrMetallicRoughness": {
        "baseColorTexture": {
          "index": 0
        },
        "metallicFactor": 0.0
      }
    }
  ],
  "meshes": [
    {
      "name": "Object_0",
      "primitives": [
        {
          "attributes": {
            "NORMAL": 1,
            "POSITION": 0,
            "TEXCOORD_0": 2
          },
          "indices": 3,
          "material": 0,
          "mode": 4
        }
      ]
    },
    {
      "name": "Object_1",
      "primitives": [
        {
          "attributes": {
            "NORMAL": 5,
            "POSITION": 4,
            "TEXCOORD_0": 6
          },
          "indices": 7,
          "material": 0,
          "mode": 4
        }
      ]
    }
  ],
  "nodes": [
    {
      "children": [
        1
      ],
      "matrix": [
        0.04370687156915665,
        0.0432264059782026,
        0.9981088042259216,
        0.0,
        1.1102230246251565e-16,
        -0.9990634918212891,
        0.04326774924993493,
        0.0,
        0.9990444183349609,
        -0.0018910979852080248,
        -0.04366593807935715,
        0.0,
        -1.3436720371246338,
        -10.33841705322266,
        12.261697769165037,
        1.0
      ],
      "name": "Sketchfab_model"
    },
    {
      "children": [
        2,
        3
      ],
      "name": "itchy-ultra.obj.cleaner.materialmerger.gles"
    },
    {
      "mesh": 0,
      "name": "Object_2"
    },
    {
      "mesh": 1,
      "name": "Object_3"
    }
  ],
  "samplers": [
    {
      "magFilter": 9729,
      "minFilter": 9987,
      "wrapS": 10497,
      "wrapT": 10497
    }
  ],
  "scene": 0,
  "scenes": [
    {
      "name": "Sketchfab_Scene",
      "nodes": [
        0
      ]
    }
  ],
  "textures": [
    {
      "sampler": 0,
      "source": 0
    }
  ]
}
